<svg xmlns="http://www.w3.org/2000/svg" version="1.1" xmlns:xlink="http://www.w3.org/1999/xlink" xmlns:svgjs="http://svgjs.dev/svgjs" width="1440" height="560" preserveAspectRatio="none" viewBox="0 0 1440 560"><g mask="url(&quot;#SvgjsMask1054&quot;)" fill="none"><rect width="1440" height="560" x="0" y="0" fill="url(&quot;#SvgjsLinearGradient1055&quot;)"></rect><path d="M660.07 144.23 a174.86 174.86 0 1 0 349.72 0 a174.86 174.86 0 1 0 -349.72 0z" fill="rgba(255, 149, 194, 0.13)" class="triangle-float1"></path><path d="M1376.5105282574086 376.5741700117861L1277.917885025357 456.41291829159337 1357.756633305164 555.005561523645 1456.349276537216 475.1668132438378z" fill="rgba(255, 149, 194, 0.13)" class="triangle-float2"></path><path d="M193.33904293605036 131.04510277116248L70.82810482807312 42.03569608988441-18.181301853204957 164.54663419786164 104.3296362547723 253.55604087913972z" fill="rgba(255, 149, 194, 0.13)" class="triangle-float2"></path><path d="M1117.79 241.08 a162.68 162.68 0 1 0 325.36 0 a162.68 162.68 0 1 0 -325.36 0z" fill="rgba(255, 149, 194, 0.13)" class="triangle-float2"></path><path d="M459.62 505.78 a107.94 107.94 0 1 0 215.88 0 a107.94 107.94 0 1 0 -215.88 0z" fill="rgba(255, 149, 194, 0.13)" class="triangle-float3"></path><path d="M978.3077452715146 32.01287015619644L1103.447387213403 129.78267371159114 1201.2171907687978 4.643031769702645 1076.0775488269094-93.12677178569207z" fill="rgba(255, 149, 194, 0.13)" class="triangle-float2"></path><path d="M506.34231184483417 113.36618210804457L382.9129704764759 44.94818097270988 314.4949693411412 168.37752234106816 437.9243107094995 236.79552347640285z" fill="rgba(255, 149, 194, 0.13)" class="triangle-float3"></path><path d="M1220.17 305.9 a177.21 177.21 0 1 0 354.42 0 a177.21 177.21 0 1 0 -354.42 0z" fill="rgba(255, 149, 194, 0.13)" class="triangle-float2"></path><path d="M697.86 371.19 a158.64 158.64 0 1 0 317.28 0 a158.64 158.64 0 1 0 -317.28 0z" fill="rgba(255, 149, 194, 0.13)" class="triangle-float3"></path><path d="M5.79 369.79 a116.55 116.55 0 1 0 233.1 0 a116.55 116.55 0 1 0 -233.1 0z" fill="rgba(255, 149, 194, 0.13)" class="triangle-float2"></path><path d="M980.4274341001077 467.77535011714895L955.3209820714782 561.4739046857849 1074.1259886687435 492.8818021457784z" fill="rgba(255, 149, 194, 0.13)" class="triangle-float1"></path><path d="M844.74 250.1 a153.12 153.12 0 1 0 306.24 0 a153.12 153.12 0 1 0 -306.24 0z" fill="rgba(255, 149, 194, 0.13)" class="triangle-float2"></path></g><defs><mask id="SvgjsMask1054"><rect width="1440" height="560" fill="#ffffff"></rect></mask><linearGradient x1="15.28%" y1="139.29%" x2="84.72%" y2="-39.29%" gradientUnits="userSpaceOnUse" id="SvgjsLinearGradient1055"><stop stop-color="rgba(255, 247, 252, 1)" offset="0.57"></stop><stop stop-color="rgba(255, 255, 255, 0.98)" offset="0.69"></stop></linearGradient><style>
                @keyframes float1 {
                    0%{transform: translate(0, 0)}
                    50%{transform: translate(-10px, 0)}
                    100%{transform: translate(0, 0)}
                }

                .triangle-float1 {
                    animation: float1 5s infinite;
                }

                @keyframes float2 {
                    0%{transform: translate(0, 0)}
                    50%{transform: translate(-5px, -5px)}
                    100%{transform: translate(0, 0)}
                }

                .triangle-float2 {
                    animation: float2 4s infinite;
                }

                @keyframes float3 {
                    0%{transform: translate(0, 0)}
                    50%{transform: translate(0, -10px)}
                    100%{transform: translate(0, 0)}
                }

                .triangle-float3 {
                    animation: float3 6s infinite;
                }
            </style></defs></svg>